<?xml version="1.0" encoding="UTF-8"?>
<svg version="1.1" xmlns="http://www.w3.org/2000/svg" width="512" height="512">
<path d="M0 0 C0.96988861 0.00182281 1.93977722 0.00364563 2.9390564 0.00552368 C17.29056055 0.05091691 31.25442918 0.5562653 45.375 3.3125 C46.72053955 3.55395752 46.72053955 3.55395752 48.09326172 3.80029297 C91.69438156 11.68987506 132.84026903 31.3774291 166.375 60.3125 C167.13167969 60.95832031 167.88835937 61.60414062 168.66796875 62.26953125 C180.8161432 72.91190183 192.64131337 84.40083733 202.375 97.3125 C202.78878906 97.84987793 203.20257813 98.38725586 203.62890625 98.94091797 C211.31576589 108.9388779 218.06113145 119.40061847 224.375 130.3125 C224.76929199 130.98974121 225.16358398 131.66698242 225.56982422 132.36474609 C238.9915837 155.69971982 247.25020472 181.48364115 252.6875 207.75 C252.83493652 208.45680908 252.98237305 209.16361816 253.13427734 209.8918457 C256.06774027 225.15238701 256.75326888 240.43996059 256.6875 255.9375 C256.68534485 256.85692383 256.6831897 257.77634766 256.68096924 258.72363281 C256.62706415 273.09666193 256.11651263 287.16402869 253.375 301.3125 C253.07698486 302.85550781 253.07698486 302.85550781 252.77294922 304.4296875 C240.7821482 364.35674699 208.50126317 420.97923554 159.375 458.3125 C158.83472168 458.72918945 158.29444336 459.14587891 157.73779297 459.57519531 C147.7427884 467.2584873 137.28290964 474.00092968 126.375 480.3125 C125.69775879 480.70679199 125.02051758 481.10108398 124.32275391 481.50732422 C86.60373904 503.20246522 43.39744326 512.79899721 0.1875 512.625 C-1.22757339 512.62226578 -1.22757339 512.62226578 -2.67123413 512.61947632 C-16.84231531 512.57344343 -30.68999852 512.10598421 -44.625 509.3125 C-45.52831055 509.13557617 -46.43162109 508.95865234 -47.36230469 508.77636719 C-53.83369999 507.47760189 -60.2366725 505.97035815 -66.625 504.3125 C-67.45563965 504.09754883 -68.2862793 503.88259766 -69.14208984 503.66113281 C-109.61050039 492.92838092 -146.54181601 471.28690378 -176.625 442.3125 C-177.28435547 441.68037598 -177.94371094 441.04825195 -178.62304688 440.39697266 C-188.11382 431.25009947 -196.83820776 421.94804306 -204.625 411.3125 C-205.44744754 410.21969886 -206.27036382 409.12725034 -207.09375 408.03515625 C-229.29450597 378.1912292 -244.13797571 343.68546844 -251.625 307.3125 C-251.83527832 306.31138184 -252.04555664 305.31026367 -252.26220703 304.27880859 C-258.61424225 272.55886711 -258.31108653 236.93875059 -251.625 205.3125 C-251.40537598 204.27061523 -251.18575195 203.22873047 -250.95947266 202.15527344 C-241.04735766 156.7124702 -219.22440838 113.4525054 -186.46972656 80.18798828 C-184.52498022 78.21081235 -182.60253414 76.21330796 -180.6796875 74.21484375 C-172.51124101 65.80260723 -164.07869229 58.24179512 -154.625 51.3125 C-154.05571777 50.88775391 -153.48643555 50.46300781 -152.89990234 50.02539062 C-144.15908179 43.50981985 -135.11413672 37.67661453 -125.625 32.3125 C-124.91778809 31.9103125 -124.21057617 31.508125 -123.48193359 31.09375 C-97.33439144 16.37245949 -68.31333558 6.67328667 -38.625 2.3125 C-37.42037109 2.13517334 -36.21574219 1.95784668 -34.97460938 1.77514648 C-23.31732646 0.176175 -11.75313902 -0.0459053 0 0 Z " fill="#4CAF50" transform="translate(255.625,-0.3125)"/>
<path d="M0 0 C1.61029767 0.40645406 3.22098667 0.81136038 4.83203125 1.21484375 C46.5207783 12.18146545 81.74443324 41.05372438 103.34155273 78.01977539 C114.96553525 98.97016746 123.13106526 123.30062012 123.16796875 147.41796875 C123.17129715 148.19707108 123.17462555 148.9761734 123.17805481 149.77888489 C123.18308529 151.41842058 123.18546435 153.05796637 123.18530273 154.69750977 C123.18747904 157.16375257 123.20564836 159.62953974 123.22460938 162.09570312 C123.2575385 171.257438 122.76511614 179.97551018 121 189 C120.86988525 189.73871338 120.73977051 190.47742676 120.60571289 191.23852539 C115.12945001 221.3338058 98.99973865 249.12980586 78 271 C76.74123047 272.33611328 76.74123047 272.33611328 75.45703125 273.69921875 C52.13605834 297.8278444 19.23087513 314.40912458 -14 319 C-15.95292969 319.27650391 -15.95292969 319.27650391 -17.9453125 319.55859375 C-24.28002737 320.23411725 -30.64580433 320.18601827 -37.0090332 320.18530273 C-39.16573169 320.18747804 -41.32190787 320.20565938 -43.47851562 320.22460938 C-73.76379146 320.3505767 -103.78399115 310.81067257 -129 294 C-134.65804391 294.30522806 -139.81188493 296.71264301 -145.015625 298.7890625 C-145.98546326 299.17057465 -146.95530151 299.55208679 -147.95452881 299.94515991 C-151.05522022 301.16627815 -154.15265303 302.39542663 -157.25 303.625 C-159.28624212 304.42893327 -161.32269861 305.23232379 -163.359375 306.03515625 C-167.34227691 307.60588378 -171.32472287 309.17775576 -175.30664062 310.75097656 C-176.25611572 311.1259729 -177.20559082 311.50096924 -178.18383789 311.8873291 C-180.04328671 312.62200079 -181.90250377 313.35725936 -183.76147461 314.09313965 C-186.2927986 315.09410317 -188.82581824 316.09064157 -191.359375 317.0859375 C-192.10962952 317.38368073 -192.85988403 317.68142395 -193.63287354 317.9881897 C-198.77141308 320 -198.77141308 320 -201 320 C-198.9456651 312.72037257 -196.4506174 305.6960043 -193.69140625 298.65625 C-193.28341293 297.60651001 -192.87541962 296.55677002 -192.45506287 295.47521973 C-191.1611358 292.14873388 -189.86185856 288.82436746 -188.5625 285.5 C-187.69431899 283.26966453 -186.82647747 281.03919688 -185.95898438 278.80859375 C-184.35820544 274.69648144 -182.75658564 270.58470489 -181.15063477 266.47460938 C-180.79679718 265.56155029 -180.44295959 264.64849121 -180.07839966 263.70776367 C-179.34863974 261.87540274 -178.58785685 260.05514519 -177.79928589 258.24731445 C-177.42329254 257.37486084 -177.04729919 256.50240723 -176.65991211 255.60351562 C-176.3171373 254.83575806 -175.97436249 254.06800049 -175.62120056 253.27697754 C-174.52734323 249.26750181 -175.7052252 246.5564773 -177.6015625 242.9765625 C-178.26929688 241.87054688 -178.93703125 240.76453125 -179.625 239.625 C-194.19893389 214.78560478 -201.18853607 188.77088495 -201.18530273 159.93603516 C-201.18748155 157.76835245 -201.20567307 155.60118642 -201.22460938 153.43359375 C-201.31125554 132.56675539 -196.97587358 110.91665357 -188 92 C-187.62101562 91.20094238 -187.24203125 90.40188477 -186.8515625 89.57861328 C-178.77941483 72.85460236 -168.85657424 58.41458528 -156 45 C-155.195625 44.13246094 -154.39125 43.26492187 -153.5625 42.37109375 C-141.80962232 30.07604463 -128.09180941 20.72597528 -113 13 C-112.07453369 12.52288574 -112.07453369 12.52288574 -111.13037109 12.03613281 C-77.89815556 -4.86699249 -36.12377538 -10.1842933 0 0 Z " fill="#FEFEFE" transform="translate(295,98)"/>
<path d="M0 0 C1.59641579 -0.00810448 1.59641579 -0.00810448 3.2250824 -0.01637268 C6.7296868 -0.02884121 10.2334668 -0.01238161 13.73803711 0.00561523 C16.1798863 0.00546022 18.62173574 0.00397076 21.06358337 0.00120544 C26.17531238 -0.00017768 31.2867605 0.01236644 36.3984375 0.03515625 C42.94780905 0.06355522 49.49671453 0.06079809 56.04612064 0.04806614 C61.0861763 0.04110902 66.12612438 0.04889847 71.16616631 0.06132317 C73.58107529 0.06583625 75.99599582 0.06617572 78.41090584 0.06225777 C81.78589661 0.05934495 85.16024649 0.07585643 88.53515625 0.09765625 C89.53116852 0.0931546 90.52718079 0.08865295 91.55337524 0.08401489 C96.85640993 0.14087886 100.62990356 0.50848184 105.20288086 3.50170898 C110.03066127 8.46359441 111.445968 13.49588292 111.37866211 20.36108398 C111.35352539 21.35881836 111.35352539 21.35881836 111.32788086 22.37670898 C111.31885742 23.06506836 111.30983398 23.75342773 111.30053711 24.46264648 C111.27720599 26.14248737 111.24134412 27.82214645 111.20288086 29.50170898 C111.96858398 29.17130615 111.96858398 29.17130615 112.74975586 28.83422852 C118.17010433 26.49766429 123.59738258 24.17773859 129.02709961 21.86303711 C132.27894994 20.46910127 135.52215184 19.05619717 138.76538086 17.64233398 C140.91097264 16.71989694 143.05680074 15.79800933 145.20288086 14.87670898 C146.73235352 14.20212646 146.73235352 14.20212646 148.29272461 13.51391602 C149.25307617 13.10512207 150.21342773 12.69632813 151.20288086 12.27514648 C152.04850586 11.90824707 152.89413086 11.54134766 153.76538086 11.16333008 C156.64713663 10.38112273 158.37960162 10.57838394 161.20288086 11.50170898 C162.87753153 14.85101033 162.35926441 18.62630049 162.36401367 22.31005859 C162.36897858 23.2223674 162.37394348 24.13467621 162.37905884 25.07463074 C162.39369808 28.10111232 162.40048484 31.12754152 162.40600586 34.15405273 C162.41175516 36.25151064 162.41751292 38.34896853 162.42327881 40.44642639 C162.43379334 44.84726202 162.43963328 49.24807935 162.44311523 53.64892578 C162.44860571 59.2962908 162.47264373 64.94341541 162.50108719 70.59070492 C162.51968119 74.9237591 162.5249174 79.25675494 162.52645111 83.58984566 C162.5294847 85.67232136 162.53753686 87.75479587 162.55063629 89.83723259 C162.56763171 92.74633132 162.56583267 95.65483704 162.55932617 98.56396484 C162.57314835 99.8615271 162.57314835 99.8615271 162.58724976 101.18530273 C162.545881 107.06965306 162.545881 107.06965306 160.81319809 109.25220585 C159.20288086 110.50170898 159.20288086 110.50170898 157.0703125 110.40966797 C153.06214348 109.14049976 149.20500084 107.58706393 145.32397461 105.97436523 C144.47489029 105.62538681 143.62580597 105.27640839 142.75099182 104.91685486 C140.96073006 104.18007552 139.17135366 103.44114167 137.3828125 102.70019531 C134.64831211 101.56749432 131.91122193 100.44125584 129.17358398 99.31616211 C127.43189255 98.59843911 125.69035095 97.8803524 123.94897461 97.16186523 C123.13222763 96.82534439 122.31548065 96.48882355 121.47398376 96.1421051 C120.70961502 95.82515182 119.94524628 95.50819855 119.15771484 95.18164062 C118.4888475 94.90485977 117.81998016 94.62807892 117.13084412 94.34291077 C115.11652406 93.4640301 113.15990215 92.50097847 111.20288086 91.50170898 C111.24928711 92.48010742 111.29569336 93.45850586 111.34350586 94.46655273 C111.74320369 108.9841488 111.74320369 108.9841488 107.20288086 115.50170898 C103.27783797 119.33101912 100.13027137 120.6199182 94.7131958 120.64888 C93.33384857 120.65961296 93.33384857 120.65961296 91.92663574 120.67056274 C90.4164386 120.6745961 90.4164386 120.6745961 88.87573242 120.67871094 C87.81364563 120.68528214 86.75155884 120.69185333 85.6572876 120.69862366 C82.13602633 120.71836395 78.61480771 120.73002083 75.09350586 120.73999023 C73.89141228 120.74406576 72.6893187 120.74814129 71.45079803 120.75234032 C65.08853832 120.77320399 58.7263002 120.78750455 52.36401367 120.796875 C45.7921968 120.80794106 39.22071836 120.84234286 32.64902115 120.8820467 C27.59608327 120.90818979 22.54322631 120.91656481 17.49022675 120.92015648 C15.06774357 120.92502823 12.64526415 120.93665883 10.22284698 120.95519447 C6.83082748 120.97953621 3.43968749 120.97862949 0.04760742 120.97167969 C-0.95109375 120.98448975 -1.94979492 120.9972998 -2.97875977 121.01049805 C-9.11129667 120.96475117 -12.95027485 120.3994779 -17.79711914 116.50170898 C-21.95432567 111.03123727 -22.37693618 105.46670797 -22.31469727 98.80029297 C-22.32170654 97.86427246 -22.32871582 96.92825195 -22.3359375 95.96386719 C-22.35344177 92.89153765 -22.34192244 89.82014049 -22.32836914 86.74780273 C-22.331066 84.60124028 -22.33495003 82.45467902 -22.33996582 80.30812073 C-22.34585043 75.81857626 -22.3373303 71.329351 -22.31860352 66.83984375 C-22.29580109 61.09424437 -22.30895222 55.34939193 -22.33289337 49.60381985 C-22.34736747 45.17448833 -22.34273814 40.74533308 -22.3323822 36.31599617 C-22.3297201 34.19776381 -22.33296643 32.07951527 -22.34230042 29.9613018 C-22.35249388 26.99834843 -22.33692593 24.0365948 -22.31469727 21.07373047 C-22.32279419 20.20444412 -22.33089111 19.33515778 -22.3392334 18.43952942 C-22.25888194 12.63908658 -21.35201174 9.16009686 -17.79711914 4.50170898 C-12.07073724 0.02116002 -7.10114316 -0.06906887 0 0 Z " fill="#4DAF51" transform="translate(185.797119140625,195.498291015625)"/>
</svg>
